<svg width="33" height="33" viewBox="0 0 33 33" fill="none" xmlns="http://www.w3.org/2000/svg">
<path fill-rule="evenodd" clip-rule="evenodd" d="M16.5 33C25.6128 33 33 25.6128 33 16.5C33 7.38721 25.6128 0 16.5 0C7.38721 0 0 7.38721 0 16.5C0 25.6128 7.38721 33 16.5 33ZM5 22.9023V26H13.627V22.9023L12.1233 22.6304L12.7881 20.2432H20.196L20.8926 22.6304L19.3889 22.9023V26H28V22.9023L26.3855 22.6758L19.4998 4H13.4846L6.6145 22.6758L5 22.9023ZM19.009 16.5259H13.9595L16.1438 9.93799L16.4128 9.0918H16.5078L16.7612 9.86279L19.009 16.5259Z" fill="white"/>
</svg>
